<svg xmlns="http://www.w3.org/2000/svg" viewBox="0 0 64 64">
  <circle cx="32" cy="32" r="32" fill="#0ea5e9"/>
  <!-- Top-down airplane, pointing up -->
  <g fill="white" transform="translate(32,32) rotate(0) translate(-32,-32)">
    <!-- Fuselage -->
    <path d="M32 8 C29 8 28 12 28 16 L28 40 C28 44 29 46 32 48 C35 46 36 44 36 40 L36 16 C36 12 35 8 32 8Z"/>
    <!-- Main wings -->
    <path d="M28 24 L8 34 L8 38 L28 32Z"/>
    <path d="M36 24 L56 34 L56 38 L36 32Z"/>
    <!-- Tail fins -->
    <path d="M28 40 L18 48 L18 50 L28 46Z"/>
    <path d="M36 40 L46 48 L46 50 L36 46Z"/>
  </g>
</svg>
